<svg width="258" height="258" viewBox="0 0 258 258" fill="none" xmlns="http://www.w3.org/2000/svg">
<path d="M60.0687 47.9615C68.2748 47.9615 75.1679 41.0154 75.1679 32.7462C75.1679 24.4769 68.2748 17.5308 60.0687 17.5308C51.8626 17.5308 44.9695 24.4769 44.9695 32.7462C44.9695 41.0154 51.8626 47.9615 60.0687 47.9615ZM51.8626 155.462C51.8626 157.777 53.8321 159.762 56.1298 159.762C58.4275 159.762 60.3969 157.777 60.3969 155.462C60.3969 153.146 58.4275 151.162 56.1298 151.162C53.8321 151.162 51.8626 153.146 51.8626 155.462ZM82.0611 67.1461C85.6718 67.1461 88.2977 64.1692 88.2977 60.8615C88.2977 57.2231 85.3435 54.5769 82.0611 54.5769C78.4504 54.5769 75.8244 57.5538 75.8244 60.8615C75.8244 64.1692 78.4504 67.1461 82.0611 67.1461ZM32.4962 124.369C40.7023 124.369 47.5954 117.423 47.5954 109.154C47.5954 100.885 40.7023 93.9385 32.4962 93.9385C24.2901 93.9385 17.3969 100.885 17.3969 109.154C17.7252 117.423 24.2901 124.369 32.4962 124.369ZM10.8321 88.6461C14.4427 88.6461 17.0687 85.6692 17.0687 82.3615C17.0687 78.7231 14.1145 76.0769 10.8321 76.0769C7.22137 76.0769 4.59542 79.0538 4.59542 82.3615C4.59542 86 7.22137 88.6461 10.8321 88.6461ZM8.53435 102.538C8.53435 100.223 6.56489 98.2385 4.26718 98.2385C1.96947 98.2385 0 100.223 0 102.538C0 104.854 1.96947 106.838 4.26718 106.838C6.56489 106.838 8.53435 104.854 8.53435 102.538ZM28.5572 66.8154C34.4656 66.8154 39.0611 62.1846 39.0611 56.2308C39.0611 50.2769 34.4656 45.6462 28.5572 45.6462C22.6489 45.6462 18.0534 50.2769 18.0534 56.2308C18.0534 62.1846 22.6489 66.8154 28.5572 66.8154ZM156.244 8.6C158.542 8.6 160.511 6.61539 160.511 4.3C160.511 1.98462 158.542 0 156.244 0C153.947 0 151.977 1.98462 151.977 4.3C151.977 6.61539 153.947 8.6 156.244 8.6ZM41.3588 153.808C41.3588 143.554 33.1527 135.285 22.9771 135.285C12.8015 135.285 4.59542 143.554 4.59542 153.808C4.59542 164.062 12.8015 172.331 22.9771 172.331C33.1527 172.331 41.3588 164.062 41.3588 153.808ZM225.504 75.7462C233.71 75.7462 240.603 68.8 240.603 60.5308C240.603 52.2615 233.71 45.3154 225.504 45.3154C217.298 45.3154 210.405 52.2615 210.405 60.5308C210.405 68.8 216.969 75.7462 225.504 75.7462ZM191.695 180.269C191.695 186.223 196.29 190.854 202.198 190.854C208.107 190.854 212.702 186.223 212.702 180.269C212.702 174.315 208.107 169.685 202.198 169.685C196.29 169.685 191.695 174.315 191.695 180.269ZM202.198 39.3615C208.107 39.3615 212.702 34.7308 212.702 28.7769C212.702 22.8231 208.107 18.1923 202.198 18.1923C196.29 18.1923 191.695 22.8231 191.695 28.7769C191.695 34.7308 196.29 39.3615 202.198 39.3615ZM178.893 66.8154C184.802 66.8154 189.397 62.1846 189.397 56.2308C189.397 50.2769 184.802 45.6462 178.893 45.6462C172.985 45.6462 168.389 50.2769 168.389 56.2308C168.389 62.1846 172.985 66.8154 178.893 66.8154ZM216.641 104.192C216.641 114.446 224.847 122.715 235.023 122.715C245.198 122.715 253.405 114.446 253.405 104.192C253.405 93.9385 245.198 85.6692 235.023 85.6692C224.847 85.6692 216.641 93.9385 216.641 104.192ZM206.137 102.538C206.137 100.223 204.168 98.2385 201.87 98.2385C199.572 98.2385 197.603 100.223 197.603 102.538C197.603 104.854 199.572 106.838 201.87 106.838C204.168 106.838 206.137 104.854 206.137 102.538ZM175.939 16.8692C179.55 16.8692 182.176 13.8923 182.176 10.5846C182.176 7.27692 179.221 4.3 175.939 4.3C172.328 4.3 169.702 7.27692 169.702 10.5846C169.702 13.8923 172.656 16.8692 175.939 16.8692ZM195.634 88.6461C199.244 88.6461 201.87 85.6692 201.87 82.3615C201.87 78.7231 198.916 76.0769 195.634 76.0769C192.351 76.0769 189.397 79.0538 189.397 82.3615C189.397 86 192.351 88.6461 195.634 88.6461ZM66.3053 77.7308C66.3053 71.7769 61.7099 67.1461 55.8015 67.1461C49.8931 67.1461 45.2977 71.7769 45.2977 77.7308C45.2977 83.6846 49.8931 88.3154 55.8015 88.3154C61.7099 88.3154 66.3053 83.6846 66.3053 77.7308ZM175.939 190.854C172.328 190.854 169.702 193.831 169.702 197.138C169.702 200.777 172.656 203.423 175.939 203.423C179.55 203.423 182.176 200.446 182.176 197.138C182.176 193.831 179.55 190.854 175.939 190.854ZM154.603 216.323C144.427 216.323 136.221 224.592 136.221 234.846C136.221 245.1 144.427 253.369 154.603 253.369C164.779 253.369 172.985 245.1 172.985 234.846C172.985 224.592 164.779 216.323 154.603 216.323ZM197.931 210.038C189.725 210.038 182.832 216.985 182.832 225.254C182.832 233.523 189.725 240.469 197.931 240.469C206.137 240.469 213.031 233.523 213.031 225.254C213.031 216.985 206.137 210.038 197.931 210.038ZM151.977 203.423C151.977 205.738 153.947 207.723 156.244 207.723C158.542 207.723 160.511 205.738 160.511 203.423C160.511 201.108 158.542 199.123 156.244 199.123C153.947 199.454 151.977 201.108 151.977 203.423ZM253.733 151.162C251.435 151.162 249.466 153.146 249.466 155.462C249.466 157.777 251.435 159.762 253.733 159.762C256.031 159.762 258 157.777 258 155.462C258 153.146 255.702 151.162 253.733 151.162ZM247.168 169.354C243.557 169.354 240.931 172.331 240.931 175.638C240.931 179.277 243.885 181.923 247.168 181.923C250.779 181.923 253.405 178.946 253.405 175.638C253.405 172 250.779 169.354 247.168 169.354ZM147.71 47.9615C155.916 47.9615 162.809 41.0154 162.809 32.7462C162.809 24.4769 155.916 17.5308 147.71 17.5308C139.504 17.5308 132.611 24.4769 132.611 32.7462C132.611 41.0154 139.504 47.9615 147.71 47.9615ZM225.504 133.631C217.298 133.631 210.405 140.577 210.405 148.846C210.405 157.115 217.298 164.062 225.504 164.062C233.71 164.062 240.603 157.115 240.603 148.846C240.275 140.577 233.71 133.631 225.504 133.631ZM32.4962 182.254C24.2901 182.254 17.3969 189.2 17.3969 197.469C17.3969 205.738 24.2901 212.685 32.4962 212.685C40.7023 212.685 47.5954 205.738 47.5954 197.469C47.5954 189.2 41.0305 182.254 32.4962 182.254ZM229.443 191.185C223.534 191.185 218.939 195.815 218.939 201.769C218.939 207.723 223.534 212.354 229.443 212.354C235.351 212.354 239.947 207.723 239.947 201.769C239.947 195.815 235.351 191.185 229.443 191.185ZM62.3664 169.354C58.7557 169.354 56.1298 172.331 56.1298 175.638C56.1298 179.277 59.084 181.923 62.3664 181.923C65.6489 181.923 68.603 178.946 68.603 175.638C68.603 172 65.6489 169.354 62.3664 169.354ZM79.1069 191.185C73.1985 191.185 68.603 195.815 68.603 201.769C68.603 207.723 73.1985 212.354 79.1069 212.354C85.0153 212.354 89.6107 207.723 89.6107 201.769C89.6107 195.815 85.0153 191.185 79.1069 191.185ZM82.0611 241.131C78.4504 241.131 75.8244 244.108 75.8244 247.415C75.8244 250.723 78.7786 253.7 82.0611 253.7C85.6718 253.7 88.2977 250.723 88.2977 247.415C88.2977 244.108 85.3435 241.131 82.0611 241.131ZM55.8015 218.638C49.8931 218.638 45.2977 223.269 45.2977 229.223C45.2977 235.177 49.8931 239.808 55.8015 239.808C61.7099 239.808 66.3053 235.177 66.3053 229.223C66.3053 223.269 61.7099 218.638 55.8015 218.638ZM97.8168 54.5769C97.8168 56.8923 99.7863 58.8769 102.084 58.8769C104.382 58.8769 106.351 56.8923 106.351 54.5769C106.351 52.2615 104.382 50.2769 102.084 50.2769C99.458 50.2769 97.8168 52.2615 97.8168 54.5769ZM121.779 22.8231C121.779 12.5692 113.573 4.3 103.397 4.3C93.2214 4.3 85.0153 12.5692 85.0153 22.8231C85.0153 33.0769 93.2214 41.3462 103.397 41.3462C113.573 41.6769 121.779 33.4077 121.779 22.8231ZM101.756 249.4C99.458 249.4 97.4885 251.385 97.4885 253.7C97.4885 256.015 99.458 258 101.756 258C104.053 258 106.023 256.015 106.023 253.7C106.023 251.385 104.053 249.4 101.756 249.4ZM110.29 210.038C102.084 210.038 95.1908 216.985 95.1908 225.254C95.1908 233.523 102.084 240.469 110.29 240.469C118.496 240.469 125.389 233.523 125.389 225.254C125.389 216.985 118.496 210.038 110.29 210.038Z" fill="url(#paint0_linear_183_306)"/>
<defs>
<linearGradient id="paint0_linear_183_306" x1="4.55748" y1="110.112" x2="132.06" y2="110.112" gradientUnits="userSpaceOnUse">
<stop stop-color="#FFAA5C"/>
<stop offset="1" stop-color="#DC6900"/>
</linearGradient>
</defs>
</svg>
