<svg width="122" height="37" viewBox="0 0 122 37" fill="none" xmlns="http://www.w3.org/2000/svg">
<path d="M8.38168 7.19231C9.52672 7.19231 10.4885 6.22308 10.4885 5.06923C10.4885 3.91538 9.52672 2.94615 8.38168 2.94615C7.23664 2.94615 6.27481 3.91538 6.27481 5.06923C6.27481 6.22308 7.23664 7.19231 8.38168 7.19231ZM7.23664 22.1923C7.23664 22.5154 7.51145 22.7923 7.83206 22.7923C8.15267 22.7923 8.42748 22.5154 8.42748 22.1923C8.42748 21.8692 8.15267 21.5923 7.83206 21.5923C7.51145 21.5923 7.23664 21.8692 7.23664 22.1923ZM11.4504 9.86923C11.9542 9.86923 12.3206 9.45385 12.3206 8.99231C12.3206 8.48462 11.9084 8.11538 11.4504 8.11538C10.9466 8.11538 10.5802 8.53077 10.5802 8.99231C10.5802 9.45385 10.9466 9.86923 11.4504 9.86923ZM4.53435 17.8538C5.67939 17.8538 6.64122 16.8846 6.64122 15.7308C6.64122 14.5769 5.67939 13.6077 4.53435 13.6077C3.38931 13.6077 2.42748 14.5769 2.42748 15.7308C2.47328 16.8846 3.38931 17.8538 4.53435 17.8538ZM1.51145 12.8692C2.01527 12.8692 2.38168 12.4538 2.38168 11.9923C2.38168 11.4846 1.96947 11.1154 1.51145 11.1154C1.00763 11.1154 0.641222 11.5308 0.641222 11.9923C0.641222 12.5 1.00763 12.8692 1.51145 12.8692ZM1.19084 14.8077C1.19084 14.4846 0.916031 14.2077 0.59542 14.2077C0.274809 14.2077 0 14.4846 0 14.8077C0 15.1308 0.274809 15.4077 0.59542 15.4077C0.916031 15.4077 1.19084 15.1308 1.19084 14.8077ZM3.98473 9.82308C4.80916 9.82308 5.45038 9.17692 5.45038 8.34615C5.45038 7.51538 4.80916 6.86923 3.98473 6.86923C3.16031 6.86923 2.51908 7.51538 2.51908 8.34615C2.51908 9.17692 3.16031 9.82308 3.98473 9.82308ZM21.8015 1.7C22.1221 1.7 22.3969 1.42308 22.3969 1.1C22.3969 0.776923 22.1221 0.5 21.8015 0.5C21.4809 0.5 21.2061 0.776923 21.2061 1.1C21.2061 1.42308 21.4809 1.7 21.8015 1.7ZM5.77099 21.9615C5.77099 20.5308 4.62595 19.3769 3.20611 19.3769C1.78626 19.3769 0.641222 20.5308 0.641222 21.9615C0.641222 23.3923 1.78626 24.5462 3.20611 24.5462C4.62595 24.5462 5.77099 23.3923 5.77099 21.9615ZM31.4656 11.0692C32.6107 11.0692 33.5725 10.1 33.5725 8.94615C33.5725 7.79231 32.6107 6.82308 31.4656 6.82308C30.3206 6.82308 29.3588 7.79231 29.3588 8.94615C29.3588 10.1 30.2748 11.0692 31.4656 11.0692ZM26.7481 25.6538C26.7481 26.4846 27.3893 27.1308 28.2137 27.1308C29.0382 27.1308 29.6794 26.4846 29.6794 25.6538C29.6794 24.8231 29.0382 24.1769 28.2137 24.1769C27.3893 24.1769 26.7481 24.8231 26.7481 25.6538ZM28.2137 5.99231C29.0382 5.99231 29.6794 5.34615 29.6794 4.51539C29.6794 3.68462 29.0382 3.03846 28.2137 3.03846C27.3893 3.03846 26.7481 3.68462 26.7481 4.51539C26.7481 5.34615 27.3893 5.99231 28.2137 5.99231ZM24.9618 9.82308C25.7863 9.82308 26.4275 9.17692 26.4275 8.34615C26.4275 7.51538 25.7863 6.86923 24.9618 6.86923C24.1374 6.86923 23.4962 7.51538 23.4962 8.34615C23.4962 9.17692 24.1374 9.82308 24.9618 9.82308ZM30.229 15.0385C30.229 16.4692 31.374 17.6231 32.7939 17.6231C34.2137 17.6231 35.3588 16.4692 35.3588 15.0385C35.3588 13.6077 34.2137 12.4538 32.7939 12.4538C31.374 12.4538 30.229 13.6077 30.229 15.0385ZM28.7634 14.8077C28.7634 14.4846 28.4885 14.2077 28.1679 14.2077C27.8473 14.2077 27.5725 14.4846 27.5725 14.8077C27.5725 15.1308 27.8473 15.4077 28.1679 15.4077C28.4885 15.4077 28.7634 15.1308 28.7634 14.8077ZM24.5496 2.85385C25.0534 2.85385 25.4198 2.43846 25.4198 1.97692C25.4198 1.51538 25.0076 1.1 24.5496 1.1C24.0458 1.1 23.6794 1.51538 23.6794 1.97692C23.6794 2.43846 24.0916 2.85385 24.5496 2.85385ZM27.2977 12.8692C27.8015 12.8692 28.1679 12.4538 28.1679 11.9923C28.1679 11.4846 27.7557 11.1154 27.2977 11.1154C26.8397 11.1154 26.4275 11.5308 26.4275 11.9923C26.4275 12.5 26.8397 12.8692 27.2977 12.8692ZM9.25191 11.3462C9.25191 10.5154 8.61069 9.86923 7.78626 9.86923C6.96183 9.86923 6.32061 10.5154 6.32061 11.3462C6.32061 12.1769 6.96183 12.8231 7.78626 12.8231C8.61069 12.8231 9.25191 12.1769 9.25191 11.3462ZM24.5496 27.1308C24.0458 27.1308 23.6794 27.5462 23.6794 28.0077C23.6794 28.5154 24.0916 28.8846 24.5496 28.8846C25.0534 28.8846 25.4198 28.4692 25.4198 28.0077C25.4198 27.5462 25.0534 27.1308 24.5496 27.1308ZM21.5725 30.6846C20.1527 30.6846 19.0076 31.8385 19.0076 33.2692C19.0076 34.7 20.1527 35.8538 21.5725 35.8538C22.9924 35.8538 24.1374 34.7 24.1374 33.2692C24.1374 31.8385 22.9924 30.6846 21.5725 30.6846ZM27.6183 29.8077C26.4733 29.8077 25.5114 30.7769 25.5114 31.9308C25.5114 33.0846 26.4733 34.0538 27.6183 34.0538C28.7634 34.0538 29.7252 33.0846 29.7252 31.9308C29.7252 30.7769 28.7634 29.8077 27.6183 29.8077ZM21.2061 28.8846C21.2061 29.2077 21.4809 29.4846 21.8015 29.4846C22.1221 29.4846 22.3969 29.2077 22.3969 28.8846C22.3969 28.5615 22.1221 28.2846 21.8015 28.2846C21.4809 28.3308 21.2061 28.5615 21.2061 28.8846ZM35.4046 21.5923C35.084 21.5923 34.8092 21.8692 34.8092 22.1923C34.8092 22.5154 35.084 22.7923 35.4046 22.7923C35.7252 22.7923 36 22.5154 36 22.1923C36 21.8692 35.6794 21.5923 35.4046 21.5923ZM34.4885 24.1308C33.9847 24.1308 33.6183 24.5462 33.6183 25.0077C33.6183 25.5154 34.0305 25.8846 34.4885 25.8846C34.9924 25.8846 35.3588 25.4692 35.3588 25.0077C35.3588 24.5 34.9924 24.1308 34.4885 24.1308ZM20.6107 7.19231C21.7557 7.19231 22.7176 6.22308 22.7176 5.06923C22.7176 3.91538 21.7557 2.94615 20.6107 2.94615C19.4656 2.94615 18.5038 3.91538 18.5038 5.06923C18.5038 6.22308 19.4656 7.19231 20.6107 7.19231ZM31.4656 19.1462C30.3206 19.1462 29.3588 20.1154 29.3588 21.2692C29.3588 22.4231 30.3206 23.3923 31.4656 23.3923C32.6107 23.3923 33.5725 22.4231 33.5725 21.2692C33.5267 20.1154 32.6107 19.1462 31.4656 19.1462ZM4.53435 25.9308C3.38931 25.9308 2.42748 26.9 2.42748 28.0538C2.42748 29.2077 3.38931 30.1769 4.53435 30.1769C5.67939 30.1769 6.64122 29.2077 6.64122 28.0538C6.64122 26.9 5.72519 25.9308 4.53435 25.9308ZM32.0153 27.1769C31.1908 27.1769 30.5496 27.8231 30.5496 28.6538C30.5496 29.4846 31.1908 30.1308 32.0153 30.1308C32.8397 30.1308 33.4809 29.4846 33.4809 28.6538C33.4809 27.8231 32.8397 27.1769 32.0153 27.1769ZM8.70229 24.1308C8.19847 24.1308 7.83206 24.5462 7.83206 25.0077C7.83206 25.5154 8.24427 25.8846 8.70229 25.8846C9.16031 25.8846 9.57252 25.4692 9.57252 25.0077C9.57252 24.5 9.16031 24.1308 8.70229 24.1308ZM11.0382 27.1769C10.2137 27.1769 9.57252 27.8231 9.57252 28.6538C9.57252 29.4846 10.2137 30.1308 11.0382 30.1308C11.8626 30.1308 12.5038 29.4846 12.5038 28.6538C12.5038 27.8231 11.8626 27.1769 11.0382 27.1769ZM11.4504 34.1462C10.9466 34.1462 10.5802 34.5615 10.5802 35.0231C10.5802 35.4846 10.9924 35.9 11.4504 35.9C11.9542 35.9 12.3206 35.4846 12.3206 35.0231C12.3206 34.5615 11.9084 34.1462 11.4504 34.1462ZM7.78626 31.0077C6.96183 31.0077 6.32061 31.6538 6.32061 32.4846C6.32061 33.3154 6.96183 33.9615 7.78626 33.9615C8.61069 33.9615 9.25191 33.3154 9.25191 32.4846C9.25191 31.6538 8.61069 31.0077 7.78626 31.0077ZM13.6489 8.11538C13.6489 8.43846 13.9237 8.71538 14.2443 8.71538C14.5649 8.71538 14.8397 8.43846 14.8397 8.11538C14.8397 7.79231 14.5649 7.51539 14.2443 7.51539C13.8779 7.51539 13.6489 7.79231 13.6489 8.11538ZM16.9924 3.68462C16.9924 2.25385 15.8473 1.1 14.4275 1.1C13.0076 1.1 11.8626 2.25385 11.8626 3.68462C11.8626 5.11538 13.0076 6.26923 14.4275 6.26923C15.8473 6.31538 16.9924 5.16154 16.9924 3.68462ZM14.1985 35.3C13.8779 35.3 13.6031 35.5769 13.6031 35.9C13.6031 36.2231 13.8779 36.5 14.1985 36.5C14.5191 36.5 14.7939 36.2231 14.7939 35.9C14.7939 35.5769 14.5191 35.3 14.1985 35.3ZM15.3893 29.8077C14.2443 29.8077 13.2824 30.7769 13.2824 31.9308C13.2824 33.0846 14.2443 34.0538 15.3893 34.0538C16.5343 34.0538 17.4962 33.0846 17.4962 31.9308C17.4962 30.7769 16.5343 29.8077 15.3893 29.8077Z" fill="url(#paint0_linear_152_10)"/>
<path d="M54.4355 11.54V13.8H48.6155V17.38H53.0755V19.6H48.6155V25.5H45.8155V11.54H54.4355ZM66.721 19.72C66.721 20.12 66.6943 20.48 66.641 20.8H58.541C58.6077 21.6 58.8877 22.2267 59.381 22.68C59.8743 23.1333 60.481 23.36 61.201 23.36C62.241 23.36 62.981 22.9133 63.421 22.02H66.441C66.121 23.0867 65.5077 23.9667 64.601 24.66C63.6943 25.34 62.581 25.68 61.261 25.68C60.1943 25.68 59.2343 25.4467 58.381 24.98C57.541 24.5 56.881 23.8267 56.401 22.96C55.9343 22.0933 55.701 21.0933 55.701 19.96C55.701 18.8133 55.9343 17.8067 56.401 16.94C56.8677 16.0733 57.521 15.4067 58.361 14.94C59.201 14.4733 60.1677 14.24 61.261 14.24C62.3143 14.24 63.2543 14.4667 64.081 14.92C64.921 15.3733 65.5677 16.02 66.021 16.86C66.4877 17.6867 66.721 18.64 66.721 19.72ZM63.821 18.92C63.8077 18.2 63.5477 17.6267 63.041 17.2C62.5343 16.76 61.9143 16.54 61.181 16.54C60.4877 16.54 59.901 16.7533 59.421 17.18C58.9543 17.5933 58.6677 18.1733 58.561 18.92H63.821ZM71.5648 16.04C71.9248 15.5067 72.4181 15.0733 73.0448 14.74C73.6848 14.4067 74.4114 14.24 75.2248 14.24C76.1714 14.24 77.0248 14.4733 77.7848 14.94C78.5581 15.4067 79.1648 16.0733 79.6048 16.94C80.0581 17.7933 80.2848 18.7867 80.2848 19.92C80.2848 21.0533 80.0581 22.06 79.6048 22.94C79.1648 23.8067 78.5581 24.48 77.7848 24.96C77.0248 25.44 76.1714 25.68 75.2248 25.68C74.3981 25.68 73.6714 25.52 73.0448 25.2C72.4314 24.8667 71.9381 24.44 71.5648 23.92V25.5H68.7648V10.7H71.5648V16.04ZM77.4248 19.92C77.4248 19.2533 77.2848 18.68 77.0048 18.2C76.7381 17.7067 76.3781 17.3333 75.9248 17.08C75.4848 16.8267 75.0048 16.7 74.4848 16.7C73.9781 16.7 73.4981 16.8333 73.0448 17.1C72.6048 17.3533 72.2448 17.7267 71.9648 18.22C71.6981 18.7133 71.5648 19.2933 71.5648 19.96C71.5648 20.6267 71.6981 21.2067 71.9648 21.7C72.2448 22.1933 72.6048 22.5733 73.0448 22.84C73.4981 23.0933 73.9781 23.22 74.4848 23.22C75.0048 23.22 75.4848 23.0867 75.9248 22.82C76.3781 22.5533 76.7381 22.1733 77.0048 21.68C77.2848 21.1867 77.4248 20.6 77.4248 19.92ZM85.1195 16.14C85.4795 15.5533 85.9461 15.0933 86.5195 14.76C87.1061 14.4267 87.7728 14.26 88.5195 14.26V17.2H87.7795C86.8995 17.2 86.2328 17.4067 85.7795 17.82C85.3395 18.2333 85.1195 18.9533 85.1195 19.98V25.5H82.3195V14.42H85.1195V16.14ZM101.005 14.42L94.1454 30.74H91.1654L93.5654 25.22L89.1254 14.42H92.2654L95.1254 22.16L98.0254 14.42H101.005ZM112.815 19.72C112.815 20.12 112.788 20.48 112.735 20.8H104.635C104.701 21.6 104.981 22.2267 105.475 22.68C105.968 23.1333 106.575 23.36 107.295 23.36C108.335 23.36 109.075 22.9133 109.515 22.02H112.535C112.215 23.0867 111.601 23.9667 110.695 24.66C109.788 25.34 108.675 25.68 107.355 25.68C106.288 25.68 105.328 25.4467 104.475 24.98C103.635 24.5 102.975 23.8267 102.495 22.96C102.028 22.0933 101.795 21.0933 101.795 19.96C101.795 18.8133 102.028 17.8067 102.495 16.94C102.961 16.0733 103.615 15.4067 104.455 14.94C105.295 14.4733 106.261 14.24 107.355 14.24C108.408 14.24 109.348 14.4667 110.175 14.92C111.015 15.3733 111.661 16.02 112.115 16.86C112.581 17.6867 112.815 18.64 112.815 19.72ZM109.915 18.92C109.901 18.2 109.641 17.6267 109.135 17.2C108.628 16.76 108.008 16.54 107.275 16.54C106.581 16.54 105.995 16.7533 105.515 17.18C105.048 17.5933 104.761 18.1733 104.655 18.92H109.915ZM117.659 16.14C118.019 15.5533 118.485 15.0933 119.059 14.76C119.645 14.4267 120.312 14.26 121.059 14.26V17.2H120.319C119.439 17.2 118.772 17.4067 118.319 17.82C117.879 18.2333 117.659 18.9533 117.659 19.98V25.5H114.859V14.42H117.659V16.14Z" fill="white"/>
<defs>
<linearGradient id="paint0_linear_152_10" x1="0.635927" y1="15.8644" x2="18.4269" y2="15.8644" gradientUnits="userSpaceOnUse">
<stop stop-color="#FFAA5C"/>
<stop offset="1" stop-color="#DC6900"/>
</linearGradient>
</defs>
</svg>
